# xmcd
#
# Track frame offsets: 
#        150
#        18381
#        35431
#        48133
#        60412
#        73177
#        84050
#        97696
#        115373
#        128479
#        143395
#        159146
#        175060
#        191673
#
# Disc length: 2804 seconds
#
# Revision: 0
# Processed by: cddbd v1.5.2PL0 Copyright (c) Steve Scherf et al.
# Submitted via: ExactAudioCopy v1.0b1
#
DISCID=9d0af20e
DTITLE=Jimmy and David Ruffin - I Am My Brother's Keeper
DYEAR=1970
DGENRE=R&B
TTITLE0=He Ain't Heavy, He's My Brother (stereo)
TTITLE1=Stand By Me (stereo)
TTITLE2=When My Love Hand Comes Down (stereo)
TTITLE3=Got To See If I Can Get Mommy (To Come Back Home) (stereo)
TTITLE4=Your Love Was Worth Waiting For (stereo)
TTITLE5=Steppin' On A Dream (stereo)
TTITLE6=Didn't I (Blow Your Mind This Time) (stereo)
TTITLE7=True Love Can Be Beautiful (stereo)
TTITLE8=Turn Back The Hands Of Time (stereo)
TTITLE9=Set 'Em Up (Move In For The Thrill) (stereo)
TTITLE10=The Things We Have To Do (stereo)
TTITLE11=Lo And Behold (stereo)
TTITLE12=You're What I Need (Not What I Want) (stereo)
TTITLE13=Stand By Me (undubbed) (stereo)
EXTD=
EXTT0=
EXTT1=
EXTT2=
EXTT3=
EXTT4=
EXTT5=
EXTT6=
EXTT7=
EXTT8=
EXTT9=
EXTT10=
EXTT11=
EXTT12=
EXTT13=
PLAYORDER=
